<?xml version="1.0" encoding="utf-8"?>
<!-- Generator: Adobe Illustrator 25.3.1, SVG Export Plug-In . SVG Version: 6.00 Build 0)  -->
<svg version="1.1" id="Capa_1" xmlns="http://www.w3.org/2000/svg" xmlns:xlink="http://www.w3.org/1999/xlink" x="0px" y="0px"
	 viewBox="0 0 24.2 18.1" style="enable-background:new 0 0 24.2 18.1;" xml:space="preserve">
<style type="text/css">
	.st0{fill:#CF2730;}
</style>
<path class="st0" d="M21.9,0H2.3C1,0,0,1,0,2.3v13.6c0,1.2,1,2.3,2.3,2.3h19.6c1.2,0,2.3-1,2.3-2.3V2.3C24.2,1,23.1,0,21.9,0z
	 M21.9,1.5c0.1,0,0.2,0,0.3,0.1L12.1,8.2L2,1.6c0.1,0,0.2-0.1,0.3-0.1L21.9,1.5z M21.9,16.6H2.3c-0.4,0-0.8-0.3-0.8-0.8V3.2
	l10.1,6.6c0.1,0.1,0.3,0.2,0.5,0.2c0.2,0,0.4-0.1,0.5-0.2l10.1-6.6v12.7C22.6,16.3,22.3,16.6,21.9,16.6z"/>
</svg>
