<?xml version="1.0" encoding="utf-8"?>
<!-- Generator: Adobe Illustrator 25.3.1, SVG Export Plug-In . SVG Version: 6.00 Build 0)  -->
<svg version="1.1" id="Capa_1" xmlns="http://www.w3.org/2000/svg" xmlns:xlink="http://www.w3.org/1999/xlink" x="0px" y="0px"
	 viewBox="0 0 33.7 33.7" style="enable-background:new 0 0 33.7 33.7;" xml:space="preserve">
<style type="text/css">
	.st0{fill:#CF2730;}
</style>
<g>
	<path class="st0" d="M16.8,0C7.6,0,0,7.6,0,16.8s7.6,16.8,16.8,16.8s16.8-7.6,16.8-16.8S26.1,0,16.8,0z M16.8,30
		C9.5,30,3.5,24.1,3.5,16.8s6-13.3,13.3-13.3S30,9.5,30,16.8S24.1,30,16.8,30z"/>
	<path class="st0" d="M18.2,16.8V9.7h-2.9v7.6c0,0,0,0,0,0.1c0,0.4,0.1,0.8,0.4,1.1l5.4,5.4l2-2L18.2,16.8z"/>
</g>
</svg>
