<?xml version="1.0" encoding="utf-8"?>
<!-- Generator: Adobe Illustrator 25.0.1, SVG Export Plug-In . SVG Version: 6.00 Build 0)  -->
<svg version="1.1" id="Layer_1" xmlns="http://www.w3.org/2000/svg" xmlns:xlink="http://www.w3.org/1999/xlink" x="0px" y="0px"
	 viewBox="0 0 55.3 95" style="enable-background:new 0 0 55.3 95;" xml:space="preserve">
<style type="text/css">
	.st0{fill:#444444;}
</style>
<g id="Layer_2_1_">
</g>
<g id="Layer_1_1_">
	<path class="st0" d="M44.3,0H11.1C5,0,0,5,0,11.1v72.8C0,90,5,95,11.1,95h33.1c6.1,0,11.1-5,11.1-11.1V11.1C55.4,5,50.4,0,44.3,0z
		 M27.7,88.7c-2.9,0-5.3-2.4-5.3-5.3s2.4-5.3,5.3-5.3s5.3,2.4,5.3,5.3C33,86.4,30.6,88.7,27.7,88.7z M47.8,71.9H7.6V14.3h40.2V71.9z
		"/>
</g>
</svg>
