<?xml version="1.0" encoding="utf-8"?>
<!-- Generator: Adobe Illustrator 25.3.1, SVG Export Plug-In . SVG Version: 6.00 Build 0)  -->
<svg version="1.1" id="Layer_1" xmlns="http://www.w3.org/2000/svg" xmlns:xlink="http://www.w3.org/1999/xlink" x="0px" y="0px"
	 viewBox="0 0 23.6 42.2" style="enable-background:new 0 0 23.6 42.2;" xml:space="preserve">
<style type="text/css">
	.st0{fill:#ADADAD;}
</style>
<g>
	<g>
		<path class="st0" d="M23.1,20L3.5,0.4C3.2,0.2,2.8,0,2.4,0S1.6,0.2,1.3,0.4L0.4,1.3c-0.6,0.6-0.6,1.6,0,2.1l17.7,17.6L0.4,38.7
			C0.2,39,0,39.4,0,39.8c0,0.4,0.2,0.8,0.4,1.1l0.9,0.9c0.3,0.3,0.7,0.4,1.1,0.4s0.8-0.2,1.1-0.4l19.6-19.6c0.3-0.3,0.4-0.7,0.4-1.1
			C23.6,20.7,23.4,20.3,23.1,20z"/>
	</g>
</g>
</svg>
