<?xml version="1.0" encoding="utf-8"?>
<!-- Generator: Adobe Illustrator 25.3.1, SVG Export Plug-In . SVG Version: 6.00 Build 0)  -->
<svg version="1.1" id="Layer_1" xmlns="http://www.w3.org/2000/svg" xmlns:xlink="http://www.w3.org/1999/xlink" x="0px" y="0px"
	 viewBox="0 0 23.6 42.2" style="enable-background:new 0 0 23.6 42.2;" xml:space="preserve">
<style type="text/css">
	.st0{fill:#ADADAD;}
</style>
<g>
	<g>
		<path class="st0" d="M0,21.1c0,0.4,0.1,0.8,0.4,1.1L20,41.8c0.3,0.2,0.7,0.4,1.1,0.4c0.4,0,0.8-0.1,1.1-0.4l0.9-0.9
			c0.2-0.3,0.4-0.7,0.4-1.1c0-0.4-0.2-0.8-0.4-1.1L5.4,21L23.1,3.4c0.6-0.5,0.6-1.5,0-2.1l-0.9-0.9C21.9,0.2,21.5,0,21.1,0
			c-0.4,0-0.8,0.2-1.1,0.4L0.4,20C0.1,20.3-0.1,20.7,0,21.1z"/>
	</g>
</g>
</svg>
