<?xml version="1.0" encoding="utf-8"?>
<!-- Generator: Adobe Illustrator 25.3.1, SVG Export Plug-In . SVG Version: 6.00 Build 0)  -->
<svg version="1.1" id="layer" xmlns="http://www.w3.org/2000/svg" xmlns:xlink="http://www.w3.org/1999/xlink" x="0px" y="0px"
	 viewBox="0 0 260 500" style="enable-background:new 0 0 260 500;" xml:space="preserve">
<style type="text/css">
	.st0{fill:#FFFFFF;}
</style>
<g>
	<path class="st0" d="M41.1,114.8c0,0-5.4,0-5.4,0.1v5.8h5.4c2.6,0,3.9-1.1,3.9-2.9C45,116,43.8,114.8,41.1,114.8z"/>
	<path class="st0" d="M44.4,108.9c0-1.6-1.1-2.8-3.6-2.8h-5.1v5.6h5.1C43.3,111.7,44.4,110.5,44.4,108.9z"/>
	<path class="st0" d="M61.8,76.2c-1.9,0-3.5,1.5-3.7,3.4h7.2v-0.1C65.2,77.6,63.7,76.1,61.8,76.2z"/>
	<polygon class="st0" points="40.2,140.2 36.4,149.7 44.2,149.7 40.3,140.2 	"/>
	<path class="st0" d="M97.4,116.4c0-0.2,0-0.4,0-0.6c-0.1-2.2-1.9-4-4.1-3.9c-2.5,0-3.9,1.9-3.9,4.7c0,2.8,1.4,4.7,3.9,4.7h0.5
		c2.2-0.3,3.7-2.2,3.5-4.4L97.4,116.4z"/>
	<path class="st0" d="M63.3,43.8c-0.1-1.9-1.6-3.3-3.5-3.3c-1.9,0-3.5,1.5-3.7,3.4h7.2V43.8z"/>
	<ellipse class="st0" cx="88.7" cy="151" rx="4.7" ry="5.6"/>
	<path class="st0" d="M112.6,111.7c-2-0.1-3.6,1.4-3.8,3.4c0,0,7.3,0,7.3,0V115C116,113.1,114.5,111.7,112.6,111.7z"/>
	<path class="st0" d="M164.4,409.2h-13.8c-0.1,0-0.3,0.1-0.3,0.3v9.5c0,0.1,0.1,0.3,0.3,0.3h13.9c5.1,0,7.4-2.1,7.4-5
		S169.7,409.2,164.4,409.2z"/>
	<path class="st0" d="M150.6,398.1h12.5c5.1,0,7.1-2.3,7.1-4.9c0-2.9-2-5.2-7.1-5.2h-12.5c-0.1,0-0.3,0.1-0.3,0.3c0,0,0,9.4,0,9.5
		C150.3,397.9,150.4,398.1,150.6,398.1z"/>
	<path class="st0" d="M255.8,274.2l-121.7-70.1c-2.6-1.5-5.8-1.5-8.3,0L4.2,274.2c-2.6,1.5-4.2,4.2-4.2,7.2v140.2
		c0,3,1.6,5.7,4.2,7.2l121.6,70.1c2.6,1.5,5.8,1.5,8.3,0l121.6-70.1c2.6-1.5,4.2-4.2,4.2-7.2V281.4h0.1
		C260,278.4,258.4,275.7,255.8,274.2z M165.4,321.8h-28.6c-0.4,0-0.7-0.3-0.7-0.7v-10.8c0-0.4,0.3-0.7,0.7-0.7h46.9
		c0.4,0,0.7,0.3,0.7,0.7v9.7c0,0.7-0.3,1.4-0.8,1.9l-28.8,30.2c-0.1,0.1-0.1,0.1,0,0.2h29.6c0.4,0,0.7,0.3,0.7,0.7l0.1,10.8
		c0,0.4-0.3,0.7-0.7,0.7h-48c-0.4,0-0.7-0.3-0.7-0.7v-9.5c0-0.7,0.3-1.4,0.8-1.9l28.8-30.4C165.5,321.9,165.5,321.9,165.4,321.8z
		 M74.8,310.2c0-0.4,0.3-0.7,0.7-0.7h12.1c0.9,0,1.7,0.4,2.3,1.2l20.4,28.9c0,0.1,0.1,0.1,0.2,0.1c0-0.1,0-0.1,0-0.2v-29.3
		c0-0.4,0.3-0.7,0.7-0.7h12.2c0.4,0,0.7,0.3,0.7,0.7v53.6c0,0.4-0.3,0.7-0.7,0.7h-9.7c-0.9,0-1.7-0.4-2.2-1.1l-22.7-31.1
		c0-0.1-0.1-0.1-0.2,0l-0.1,0.1v31.4c0,0.4-0.3,0.7-0.7,0.7H75.5c-0.4,0-0.7-0.3-0.7-0.7V310.2z M100.1,432.1
		c-16,0.1-28.2-11.5-28.2-28.4c0-16.9,12.1-28.5,28.2-28.5c16.1,0,24.8,9.5,26.6,22.1c0,0.4-0.2,0.8-0.6,0.8l-13.3,0.5
		c-0.2,0-0.3-0.1-0.3-0.3c-1.3-5.4-4.7-10-12.4-10c-8.1,0-12.8,6-12.8,15.3s4.7,15.3,12.8,15.3c7.9,0,11.3-4.8,12.5-10.3
		c0-0.2,0.2-0.3,0.3-0.3l13.3,0.6c0.4,0,0.7,0.4,0.7,0.7C125.1,422.5,116.2,432.1,100.1,432.1z M130,266l-55.1,31.8v-15.7l55.1-33.7
		l55.1,33.7v15.7L130,266z M166.8,431.3h-30.3c-0.4,0-0.7-0.3-0.7-0.7V377c0-0.4,0.3-0.7,0.7-0.7H165c14.1,0,20.5,6,20.5,15.2
		c0.2,5.7-4,10.6-9.7,11.2c6.4,1.3,11.4,5.5,11.4,13.5C187.2,425.7,179.6,431.3,166.8,431.3z"/>
	<path class="st0" d="M154.4,81.3l0.1-0.6c0-0.2,0-0.3,0-0.5c0-2.2-1.8-3.9-4-3.9c-2.5,0-3.9,1.9-3.9,4.7c0,2.8,1.4,4.7,3.9,4.7h0.4
		C153.1,85.4,154.7,83.5,154.4,81.3z"/>
	<path class="st0" d="M132.5,76.2c-1.9,0-3.5,1.5-3.7,3.4h7.2v-0.1C135.9,77.6,134.4,76.2,132.5,76.2z"/>
	<path class="st0" d="M134.8,43.8L134.8,43.8c-0.1-1.9-1.6-3.4-3.5-3.3c-1.9,0-3.4,1.4-3.7,3.3H134.8z"/>
	<path class="st0" d="M145.3,48.7c0,0.1,0,0.2,0,0.3c0.1,1,1.1,1.6,2,1.4h0.3c2.1-0.1,3.6-1.9,3.5-4v-0.5l-2.8,0.6
		C146.6,46.9,145.3,47.2,145.3,48.7z"/>
	<path class="st0" d="M123.2,154.4c0,0.2,0,0.3,0,0.4c0.2,1.2,1.3,2,2.5,1.8h0.3c2.6-0.2,4.5-2.4,4.3-4.9v-0.8l-3.3,0.7
		C124.7,152.2,123.2,152.6,123.2,154.4z"/>
	<path class="st0" d="M0,0v268.3c0.3-0.2,0.5-0.1,0.8-0.2L122.4,198c4.7-2.7,10.5-2.7,15.1,0l121.7,70.1l0.8,0.5V0H0z M159.3,31.5
		h4.1v21.4h-4.1V31.5z M149.2,88.9c-4.5,0-6.8-3.5-6.8-7.9c0-4.4,2.4-7.9,6.8-7.9c2.3-0.1,4.4,1.2,5.2,3.3v-9.3v0h4.1v21.3h-4.1
		v-2.8C153.5,87.7,151.4,89,149.2,88.9z M140.6,114.6l2.8,0.5c3.1,0.5,5,1.9,5,4.7c0,3-2.6,4.7-6.5,4.7s-6.9-1.7-7.2-5.4l3.6-0.2
		c0.3,1.9,1.6,2.8,3.7,2.8c1.6,0,2.8-0.6,2.8-1.6s-0.7-1.5-2.2-1.7l-2.4-0.4c-3.2-0.5-5-1.7-5-4.5c0-2.8,2.4-4.8,6.2-4.8
		c4.2,0,6.7,1.9,7,5.2L145,114c-0.3-1.7-1.5-2.5-3.6-2.5c-1.5,0-2.4,0.7-2.4,1.7C139,114,139.8,114.7,140.6,114.6z M148.5,40.5
		c-1.5,0-2.8,1-3,2.5l-3.7-0.3c0.5-3.1,2.9-5.2,6.8-5.2c3.9,0,6.4,1.9,6.4,5.8v5.9c0,0.1,0,0.1,0,0.2c0.1,0.5,0.5,0.9,1.1,0.9
		c0.5,0,0.9-0.1,1.3-0.3v2.2c-0.8,0.6-1.8,0.9-2.8,0.9c-1.6,0.1-3.1-1-3.3-2.6c-1.1,1.7-3,2.8-5.1,2.6c-3.1,0-5-1.6-5-4.2
		c0-2.8,2.3-4,5.7-4.7l4.2-0.8v-0.3c0-0.1,0-0.3,0-0.5C151,41.3,149.8,40.4,148.5,40.5z M139.9,80.6V82h-11.3c0.2,2.1,2,3.8,4.1,3.7
		c1.7,0.2,3.3-0.8,3.8-2.5l3.3,0.4c-0.8,3.3-3.4,5.3-7.2,5.3c-4.7,0-8-3-8-7.7v-0.5c0.1-4.3,3.7-7.7,7.9-7.6c0.4,0.1,0.7,0.1,1,0
		C137.3,73.4,140.2,76.8,139.9,80.6z M123.4,45.1c0.1-4.3,3.6-7.7,7.9-7.6c0.3,0,0.7,0,1,0c3.8,0.3,6.7,3.7,6.4,7.5v1.4h-11.2
		c0.1,2.2,1.9,3.9,4.1,3.8c1.7,0.2,3.3-0.8,3.8-2.5l3.2,0.3c-0.8,3.3-3.4,5.3-7.2,5.3c-4.7,0-8-3-8-7.7V45.1z M122.7,109.2h4v2.8
		c0.6-1.9,2.3-3.2,4.2-3.3c0.8-0.1,1.6,0.2,2.2,0.6l-0.5,3.8c-0.7-0.4-1.5-0.6-2.4-0.6c-2.1,0-3.5,1.4-3.5,4.2v7.4h-4V109.2z
		 M111.8,76.4v12.1h-4V76.4h-2.2v-2.8h2.2v-0.7c0-3.8,2.6-6.1,6.5-6.1c3.2,0,5,1.3,5.9,3.7l-3.1,1c-0.5-0.9-1.4-1.5-2.4-1.5
		c-1.5-0.1-2.8,1.2-2.8,2.7l-0.1,0.8h9.5v15h-4.1V76.4H111.8z M103.7,49.7L115.5,35h-11.7v-3.5h17.1v3.3l-11.7,14.5h12v3.5h-17.5
		V49.7z M98.1,67.1h4.2v4h-4.2V67.1z M102.3,73.5v15h-4l-0.1-15H102.3z M90.4,84.2c0.1,0.9,0.9,1.5,1.8,1.4c0.8,0,1.7-0.3,2.5-0.7
		v2.7c-1.2,0.9-2.7,1.4-4.2,1.3c-0.3,0-0.6,0-0.9,0c-2.1-0.3-3.5-2.1-3.3-4.2v-8.3h-2.2v-2.5l1-0.2c1.2-0.1,2.1-1.1,2.2-2.3l0.5-2
		h2.5v4.2h4.1v2.8h-4.1v7.4C90.2,83.9,90.2,84.1,90.4,84.2z M72.8,37.9l3.1,10l2.8-10H82l2.8,9.9h0.1l3.1-10h3.9l-4.8,15h-3.9
		l-2.8-9.9h-0.1l-2.8,9.9h-4l-4.7-14.9H72.8z M79.7,76.9c-2.1,0-3.5,1.4-3.5,4.2v7.4h-4.1V73.6h4v2.8c0.6-1.9,2.2-3.2,4.2-3.3
		c0.7-0.1,1.5,0.2,2.1,0.6l-0.3,3.8C81.4,77.1,80.6,76.9,79.7,76.9z M82.1,102.7v21.4h-4.2v-21.4H82.1z M69.8,106.7v-4H74v4H69.8z
		 M73.9,109.1v15h-4.1l0.1-15H73.9z M62.1,85.9c1.8,0.2,3.4-0.9,3.8-2.6l3.3,0.3c-0.8,3.3-3.4,5.3-7.2,5.3c-4.7,0-8-3-8-7.7v-0.5
		c0.1-4.3,3.7-7.7,7.9-7.6c0.4,0.1,0.7,0.1,0.9,0.1c3.8,0.3,6.7,3.7,6.4,7.5v1.4H58C58.1,84.3,59.9,86,62.1,85.9z M58.1,124.6
		c-3.9,0-5.3-2.7-5.3-6v-9.4h4.1v8.5c0,2.2,0.8,3.6,2.8,3.6s3.2-1.7,3.2-4.2v-7.9H67v15h-4.1v-2.4C62,123.6,60.1,124.7,58.1,124.6z
		 M31.6,31.5h4.2l10.1,14.2V31.5h3.9v21.4h-3.4L35.5,37.8v15.1h-3.9V31.5z M47.8,158.4l-2.6-6.3h-9.7l-2.5,6.3h-2.9l8.7-21.4H42
		l8.9,21.4H47.8z M49.5,118.2c-0.1,3.7-2.9,5.9-7.8,5.9H31.6v-21.4H41c5.4,0,7.7,2.3,7.7,5.8c0,2.2-1.6,4.2-3.8,4.5
		C47.6,113.2,49.6,115.5,49.5,118.2z M41.3,85.2c2.9,0.1,5.5-1.9,5.9-4.8l4.1,0.2c-0.7,4.9-4.1,8.3-10,8.3h-0.8
		c-5.8-0.3-10.2-5.3-9.9-11.1V77c0.1-5.9,4.9-10.5,10.7-10.4c5.9,0,9.4,3.6,10.1,8.5l-4.2,0.2c-0.4-2.9-3-5.1-5.9-4.9
		c-3.8,0-6.3,2.8-6.3,7.4C35,82.4,37.5,85.2,41.3,85.2z M51.9,45.1c0.1-4.3,3.6-7.7,7.9-7.6c0.4,0,0.7,0,1.1,0
		c3.8,0.3,6.7,3.7,6.4,7.5v1.4H56.1c0.1,2.2,1.9,3.9,4.1,3.8c1.7,0.2,3.3-0.8,3.8-2.5l3.1,0.3c-0.8,3.3-3.4,5.3-7.2,5.3
		c-4.7,0-8-3-8-7.7V45.1z M59.4,158.7c-3.7,0-6.5-1.7-6.8-5.4l2.4-0.2c0.2,2.3,1.9,3.5,4.4,3.5c2,0,3.4-0.8,3.4-2.2
		c0-1.4-1-1.9-2.8-2.2l-2.5-0.4c-2.7-0.5-4.4-1.5-4.4-4.2c0-2.7,2.3-4.5,5.7-4.5c3.9,0,6.2,1.9,6.5,5.3l-2.3,0.1
		c-0.3-2.2-1.7-3.3-4.2-3.3c-1.9,0-3.1,1-3.1,2.2s0.8,1.8,2.3,2.1l2.8,0.4l-0.1,0c3,0.5,4.8,1.6,4.8,4.3
		C65.5,157.1,62.9,158.7,59.4,158.7z M73.6,158.7c-3.7,0-6.5-1.7-6.8-5.4l2.4-0.2c0.2,2.3,1.8,3.5,4.4,3.5c2,0,3.4-0.8,3.4-2.2
		c0-1.4-1-1.9-2.8-2.2l-2.5-0.4c-2.7-0.5-4.4-1.5-4.4-4.2c0-2.7,2.3-4.5,5.7-4.5c3.9,0,6.2,1.9,6.5,5.3l-2.3,0.1
		c-0.3-2.2-1.7-3.3-4.2-3.3c-1.9,0-3.1,1-3.1,2.2s0.8,1.8,2.3,2.1l2.8,0.4l-0.1,0c3,0.5,4.8,1.6,4.8,4.3
		C79.7,157.1,77.1,158.7,73.6,158.7z M96.3,151.1c-0.1,4.3-3.7,7.7-8,7.6c-4.3-0.1-7.7-3.7-7.6-8c0.1-4.3,3.7-7.7,8-7.6h0.6
		c4.1,0.2,7.2,3.7,7,7.8V151.1z M92.1,124.5c-4.5,0-6.8-3.5-6.8-7.9c0-4.4,2.4-7.9,6.8-7.9c2.3-0.1,4.4,1.2,5.2,3.3v-9.3h4.2v21.4
		h-4.2v-2.9C96.4,123.3,94.3,124.6,92.1,124.5z M105.3,158.6c-4.1-0.2-7.3-3.4-7.5-7.5c-0.2-4.3,3.2-7.9,7.5-8.1
		c3.6-0.2,6.6,2.5,6.9,6l-2.5,0.1c-0.2-2.2-2.1-3.9-4.4-3.8c-2.8,0-4.7,2.2-4.7,5.6c0,3.5,1.9,5.6,4.7,5.6c2.3,0.1,4.2-1.6,4.4-3.9
		l2.6,0C112,156.2,108.9,158.8,105.3,158.6z M117.4,158.3h-2.8v-14.8h2.8V158.3z M117.4,140.2h-2.9V137h2.9V140.2z M112.8,121.4
		c1.7,0.2,3.3-0.8,3.8-2.5l3.4,0.3c-0.8,3.3-3.4,5.3-7.2,5.3c-4.7,0-8-3-8-7.7v-0.4c0-4.3,3.5-7.7,7.8-7.7c0.4,0,0.7,0,1,0
		c3.8,0.3,6.7,3.7,6.4,7.5v1.4h-11.3C108.8,119.8,110.6,121.5,112.8,121.4z M135.6,157.7c-0.6,0.6-1.3,0.9-2.1,0.9
		c-1.7,0-3-1.3-3-2.9c-1.1,2-3.2,3.2-5.5,3.1c-2.9,0-4.8-1.7-4.8-4.2c0-2.8,2.4-4,6-4.7l4-0.8v-0.6c0-0.1,0-0.3,0-0.5
		c-0.2-1.7-1.6-2.9-3.3-2.8c-1.8-0.1-3.4,1.2-3.7,3l-2.5-0.3c0.6-2.9,3.3-5,6.3-4.8c3.7,0,5.9,1.9,5.9,5.7v6.6h0.2c0,0,0,0.1,0,0.2
		c0.1,0.6,0.6,1,1.2,0.9c0.5,0,0.9-0.1,1.3-0.3V157.7z M144.1,157.4c-1.1,0.9-2.4,1.3-3.8,1.3c-2.1,0-3.6-1-3.6-3.9v-9.3h-2.2V144
		l0.9-0.2c1.4-0.3,1.7-1,2-2.4l0.4-2.1h1.6v4.2h4.2v2h-4.2v9c-0.1,0.2-0.1,0.4,0.1,0.6c0.1,0.9,0.9,1.5,1.8,1.4c1-0.1,2-0.4,2.8-0.9
		V157.4z M146.8,136.9h2.9v3.2h-2.9V136.9z M149.8,158.3H147v-14.8h2.8V158.3z M167,151.1c-0.1,4.3-3.7,7.7-8,7.6
		c-4.3-0.1-7.7-3.7-7.6-8c0.1-4.3,3.7-7.7,8-7.6h0.6c4.1,0.2,7.2,3.7,7,7.8V151.1z M166.5,49c0-2.8,2.3-4,5.7-4.7l4.2-0.8v-0.3
		c0-0.2,0-0.3,0-0.5c-0.1-1.4-1.3-2.3-2.6-2.2c-1.4,0-2.7,1-2.9,2.5l-3.7-0.3c0.5-3.1,2.9-5.2,6.8-5.2c3.9,0,6.4,1.9,6.4,5.8h-0.2v6
		c0,0.1,0,0.1,0,0.2c0.1,0.5,0.5,0.9,1.1,0.9c0.5,0,0.9-0.1,1.3-0.3v2.2c-0.8,0.6-1.8,0.9-2.8,0.9c-1.6,0.1-3-1-3.2-2.6
		c-1.1,1.7-3,2.7-5.1,2.6C168.4,53.2,166.5,51.6,166.5,49z M183.2,158.3h-2.8v-9c0-2.4-1.2-4-3.5-4h-0.2c-2.3,0.2-4.1,2.2-3.9,4.5
		v8.5H170v-14.8h2.8v2.6c0.9-1.9,2.8-3.1,4.9-3c3.8,0,5.4,2.6,5.5,6V158.3z M199.8,52.8h-4.1v-8.5c0-2.2-0.8-3.6-2.9-3.6
		c-2.1,0-3.4,1.7-3.4,4.2v7.9h-4.1V37.9h4.1v2.4c0.9-1.8,2.9-2.9,4.9-2.8c4.1,0,5.5,2.7,5.5,6V52.8z M218.3,52.9h-4.1v-2.8
		c-0.9,2.1-3,3.4-5.2,3.3c-4.5,0-6.8-3.5-6.8-7.9c0-4.4,2.4-7.9,6.8-7.9c2.3-0.2,4.3,1.1,5.2,3.2v-9.3h4.1V52.9z"/>
	<path class="st0" d="M214.2,45.2c0-0.2,0-0.3,0-0.5c0-2.2-1.8-4-4-4c-2.5,0-3.9,1.9-3.9,4.7s1.4,4.7,3.9,4.7h0.5
		c2.2-0.3,3.8-2.2,3.5-4.4V45.2z"/>
	<path class="st0" d="M172.7,50.4h0.3c2.1-0.1,3.6-1.9,3.5-4v-0.5l-2.8,0.6c-1.7,0.4-3,0.7-3,2.2c0,0.1,0,0.2,0,0.3
		C170.8,50,171.8,50.6,172.7,50.4z"/>
	<ellipse class="st0" cx="159.4" cy="151" rx="4.7" ry="5.6"/>
</g>
</svg>
