<?xml version="1.0" encoding="utf-8"?>
<!-- Generator: Adobe Illustrator 25.3.1, SVG Export Plug-In . SVG Version: 6.00 Build 0)  -->
<svg version="1.1" id="Layer_1" xmlns="http://www.w3.org/2000/svg" xmlns:xlink="http://www.w3.org/1999/xlink" x="0px" y="0px"
	 viewBox="0 0 10.8 12.3" style="enable-background:new 0 0 10.8 12.3;" xml:space="preserve">
<style type="text/css">
	.st0{fill:#CF2530;}
</style>
<path class="st0" d="M2.9,4.6c0.4,1,1,2,1.7,2.9c0.4,0.5,1,0.9,1.6,1.4c0.1,0,0.2,0,0.3-0.2C6.8,8.4,7,8.1,7.4,7.8
	c0.2-0.2,0.5-0.1,0.8,0c0.3,0.1,0.6,0.4,0.8,0.5c0.5,0.2,0.8,0.6,1.3,0.8c0.6,0.4,0.7,0.8,0.3,1.4c-0.3,0.5-0.7,0.9-1.1,1.4
	c-0.3,0.4-0.7,0.4-1.2,0.4c-1-0.2-1.9-0.6-2.7-1.1c-1.1-0.7-2.1-1.6-2.9-2.7c-0.7-1-1.3-1.9-1.8-3C0.2,4.4-0.1,3.1,0,1.8
	c0-0.4,0.3-0.8,0.6-0.9c0.5-0.2,1.1-0.6,1.6-0.8c0.4-0.2,1,0,1.2,0.4C3.7,1.3,4,2.1,4.3,2.9C4.4,3.3,4.4,3.7,3.9,4
	C3.6,4.1,3.2,4.4,2.9,4.6z"/>
</svg>
