<?xml version="1.0" encoding="utf-8"?>
<!-- Generator: Adobe Illustrator 25.3.1, SVG Export Plug-In . SVG Version: 6.00 Build 0)  -->
<svg version="1.1" id="Capa_1" xmlns="http://www.w3.org/2000/svg" xmlns:xlink="http://www.w3.org/1999/xlink" x="0px" y="0px"
	 viewBox="0 0 5.6 6.3" style="enable-background:new 0 0 5.6 6.3;" xml:space="preserve">
<style type="text/css">
	.st0{fill:#909090;}
</style>
<g>
	<g>
		<path class="st0" d="M5.4,2.8C5.4,2.8,5.4,2.8,5.4,2.8L2.8,0.1C2.6,0,2.3,0,2.1,0.1c-0.2,0.2-0.2,0.5,0,0.7l1.8,1.8H0.5
			C0.2,2.6,0,2.9,0,3.1s0.2,0.5,0.5,0.5h3.4L2.1,5.4c-0.2,0.2-0.2,0.5,0,0.7c0.2,0.2,0.5,0.2,0.7,0l2.6-2.6c0,0,0,0,0,0
			C5.6,3.3,5.6,3,5.4,2.8z"/>
	</g>
</g>
</svg>
